<svg width="159" height="31" viewBox="0 0 159 31" fill="none" xmlns="http://www.w3.org/2000/svg">
<path d="M1.02 20V11.48H3.972C4.884 11.48 5.644 11.672 6.252 12.056C6.868 12.432 7.328 12.944 7.632 13.592C7.936 14.232 8.088 14.944 8.088 15.728C8.088 16.592 7.92 17.344 7.584 17.984C7.248 18.624 6.772 19.12 6.156 19.472C5.54 19.824 4.812 20 3.972 20H1.02ZM6.996 15.728C6.996 15.088 6.876 14.52 6.636 14.024C6.404 13.528 6.064 13.14 5.616 12.86C5.168 12.58 4.62 12.44 3.972 12.44H2.1V19.04H3.972C4.628 19.04 5.18 18.896 5.628 18.608C6.076 18.312 6.416 17.916 6.648 17.42C6.88 16.916 6.996 16.352 6.996 15.728ZM15.3938 19.04V20H9.60984V11.48H15.2858V12.44H10.6898V15.2H14.6858V16.1H10.6898V19.04H15.3938ZM21.8795 13.268C21.7835 13.156 21.6555 13.048 21.4955 12.944C21.3355 12.84 21.1555 12.748 20.9555 12.668C20.7555 12.58 20.5355 12.512 20.2955 12.464C20.0635 12.408 19.8195 12.38 19.5635 12.38C18.9075 12.38 18.4235 12.504 18.1115 12.752C17.7995 13 17.6435 13.34 17.6435 13.772C17.6435 14.076 17.7235 14.316 17.8835 14.492C18.0435 14.668 18.2875 14.812 18.6155 14.924C18.9515 15.036 19.3755 15.152 19.8875 15.272C20.4795 15.4 20.9915 15.556 21.4235 15.74C21.8555 15.924 22.1875 16.172 22.4195 16.484C22.6515 16.788 22.7675 17.196 22.7675 17.708C22.7675 18.116 22.6875 18.472 22.5275 18.776C22.3755 19.072 22.1595 19.32 21.8795 19.52C21.5995 19.712 21.2715 19.856 20.8955 19.952C20.5195 20.04 20.1115 20.084 19.6715 20.084C19.2395 20.084 18.8155 20.04 18.3995 19.952C17.9915 19.856 17.6035 19.72 17.2355 19.544C16.8675 19.368 16.5235 19.148 16.2035 18.884L16.7195 17.972C16.8475 18.108 17.0115 18.244 17.2115 18.38C17.4195 18.508 17.6515 18.628 17.9075 18.74C18.1715 18.852 18.4555 18.944 18.7595 19.016C19.0635 19.08 19.3755 19.112 19.6955 19.112C20.3035 19.112 20.7755 19.004 21.1115 18.788C21.4475 18.564 21.6155 18.24 21.6155 17.816C21.6155 17.496 21.5195 17.24 21.3275 17.048C21.1435 16.856 20.8675 16.696 20.4995 16.568C20.1315 16.44 19.6835 16.312 19.1555 16.184C18.5795 16.04 18.0955 15.884 17.7035 15.716C17.3115 15.54 17.0155 15.312 16.8155 15.032C16.6235 14.752 16.5275 14.388 16.5275 13.94C16.5275 13.396 16.6595 12.936 16.9235 12.56C17.1875 12.184 17.5515 11.9 18.0155 11.708C18.4795 11.516 19.0035 11.42 19.5875 11.42C19.9715 11.42 20.3275 11.46 20.6555 11.54C20.9915 11.62 21.3035 11.732 21.5915 11.876C21.8795 12.02 22.1435 12.192 22.3835 12.392L21.8795 13.268ZM29.972 19.04V20H24.188V11.48H29.864V12.44H25.268V15.2H29.264V16.1H25.268V19.04H29.972ZM32.5336 13.472V20H31.4536V11.48H32.3656L37.5736 18.14V11.492H38.6536V20H37.6696L32.5336 13.472ZM40.928 11.48L43.748 18.644L46.556 11.48H47.696L44.24 20H43.256L39.788 11.48H40.928ZM51.9721 20.06C51.3721 20.06 50.8281 19.94 50.3401 19.7C49.8521 19.46 49.4281 19.136 49.0681 18.728C48.7161 18.312 48.4441 17.848 48.2521 17.336C48.0601 16.816 47.9641 16.284 47.9641 15.74C47.9641 15.172 48.0641 14.632 48.2641 14.12C48.4721 13.6 48.7561 13.14 49.1161 12.74C49.4841 12.332 49.9121 12.012 50.4001 11.78C50.8881 11.54 51.4201 11.42 51.9961 11.42C52.5961 11.42 53.1401 11.544 53.6281 11.792C54.1161 12.04 54.5361 12.372 54.8881 12.788C55.2401 13.204 55.5121 13.668 55.7041 14.18C55.8961 14.692 55.9921 15.216 55.9921 15.752C55.9921 16.32 55.8921 16.864 55.6921 17.384C55.4921 17.896 55.2081 18.356 54.8401 18.764C54.4801 19.164 54.0561 19.48 53.5681 19.712C53.0801 19.944 52.5481 20.06 51.9721 20.06ZM49.0561 15.74C49.0561 16.172 49.1241 16.592 49.2601 17C49.4041 17.4 49.6041 17.756 49.8601 18.068C50.1161 18.38 50.4241 18.628 50.7841 18.812C51.1441 18.996 51.5441 19.088 51.9841 19.088C52.4401 19.088 52.8481 18.992 53.2081 18.8C53.5681 18.608 53.8721 18.352 54.1201 18.032C54.3761 17.712 54.5681 17.352 54.6961 16.952C54.8321 16.552 54.9001 16.148 54.9001 15.74C54.9001 15.308 54.8281 14.892 54.6841 14.492C54.5481 14.092 54.3481 13.736 54.0841 13.424C53.8281 13.104 53.5201 12.856 53.1601 12.68C52.8081 12.496 52.4161 12.404 51.9841 12.404C51.5281 12.404 51.1201 12.5 50.7601 12.692C50.4001 12.876 50.0921 13.128 49.8361 13.448C49.5881 13.768 49.3961 14.128 49.2601 14.528C49.1241 14.92 49.0561 15.324 49.0561 15.74ZM57.4927 20V11.48H58.5727V19.04H63.3247V20H57.4927ZM63.5452 11.48L66.3652 18.644L69.1732 11.48H70.3132L66.8572 20H65.8732L62.4052 11.48H63.5452ZM71.4614 20V11.48H72.5414V20H71.4614ZM74.5786 20V11.48H77.5306C78.4426 11.48 79.2026 11.672 79.8106 12.056C80.4266 12.432 80.8866 12.944 81.1906 13.592C81.4946 14.232 81.6466 14.944 81.6466 15.728C81.6466 16.592 81.4786 17.344 81.1426 17.984C80.8066 18.624 80.3306 19.12 79.7146 19.472C79.0986 19.824 78.3706 20 77.5306 20H74.5786ZM80.5546 15.728C80.5546 15.088 80.4346 14.52 80.1946 14.024C79.9626 13.528 79.6226 13.14 79.1746 12.86C78.7266 12.58 78.1786 12.44 77.5306 12.44H75.6586V19.04H77.5306C78.1866 19.04 78.7386 18.896 79.1866 18.608C79.6346 18.312 79.9746 17.916 80.2066 17.42C80.4386 16.916 80.5546 16.352 80.5546 15.728ZM86.6244 20.06C86.0244 20.06 85.4804 19.94 84.9924 19.7C84.5044 19.46 84.0804 19.136 83.7204 18.728C83.3684 18.312 83.0964 17.848 82.9044 17.336C82.7124 16.816 82.6164 16.284 82.6164 15.74C82.6164 15.172 82.7164 14.632 82.9164 14.12C83.1244 13.6 83.4084 13.14 83.7684 12.74C84.1364 12.332 84.5644 12.012 85.0524 11.78C85.5404 11.54 86.0724 11.42 86.6484 11.42C87.2484 11.42 87.7924 11.544 88.2804 11.792C88.7684 12.04 89.1884 12.372 89.5404 12.788C89.8924 13.204 90.1644 13.668 90.3564 14.18C90.5484 14.692 90.6444 15.216 90.6444 15.752C90.6444 16.32 90.5444 16.864 90.3444 17.384C90.1444 17.896 89.8604 18.356 89.4924 18.764C89.1324 19.164 88.7084 19.48 88.2204 19.712C87.7324 19.944 87.2004 20.06 86.6244 20.06ZM83.7084 15.74C83.7084 16.172 83.7764 16.592 83.9124 17C84.0564 17.4 84.2564 17.756 84.5124 18.068C84.7684 18.38 85.0764 18.628 85.4364 18.812C85.7964 18.996 86.1964 19.088 86.6364 19.088C87.0924 19.088 87.5004 18.992 87.8604 18.8C88.2204 18.608 88.5244 18.352 88.7724 18.032C89.0284 17.712 89.2204 17.352 89.3484 16.952C89.4844 16.552 89.5524 16.148 89.5524 15.74C89.5524 15.308 89.4804 14.892 89.3364 14.492C89.2004 14.092 89.0004 13.736 88.7364 13.424C88.4804 13.104 88.1724 12.856 87.8124 12.68C87.4604 12.496 87.0684 12.404 86.6364 12.404C86.1804 12.404 85.7724 12.5 85.4124 12.692C85.0524 12.876 84.7444 13.128 84.4884 13.448C84.2404 13.768 84.0484 14.128 83.9124 14.528C83.7764 14.92 83.7084 15.324 83.7084 15.74ZM95.1802 20V11.48H98.7322C99.1082 11.48 99.4522 11.56 99.7642 11.72C100.076 11.872 100.348 12.08 100.58 12.344C100.812 12.6 100.992 12.892 101.12 13.22C101.248 13.54 101.312 13.868 101.312 14.204C101.312 14.668 101.208 15.112 101 15.536C100.792 15.952 100.5 16.292 100.124 16.556C99.7482 16.812 99.3082 16.94 98.8042 16.94H96.2602V20H95.1802ZM96.2602 15.98H98.7442C99.0402 15.98 99.2962 15.9 99.5122 15.74C99.7362 15.58 99.9082 15.364 100.028 15.092C100.156 14.82 100.22 14.524 100.22 14.204C100.22 13.868 100.148 13.568 100.004 13.304C99.8602 13.032 99.6722 12.82 99.4402 12.668C99.2082 12.516 98.9522 12.44 98.6722 12.44H96.2602V15.98ZM106.113 20.06C105.513 20.06 104.969 19.94 104.481 19.7C103.993 19.46 103.569 19.136 103.209 18.728C102.857 18.312 102.585 17.848 102.393 17.336C102.201 16.816 102.105 16.284 102.105 15.74C102.105 15.172 102.205 14.632 102.405 14.12C102.613 13.6 102.897 13.14 103.257 12.74C103.625 12.332 104.053 12.012 104.541 11.78C105.029 11.54 105.561 11.42 106.137 11.42C106.737 11.42 107.281 11.544 107.769 11.792C108.257 12.04 108.677 12.372 109.029 12.788C109.381 13.204 109.653 13.668 109.845 14.18C110.037 14.692 110.133 15.216 110.133 15.752C110.133 16.32 110.033 16.864 109.833 17.384C109.633 17.896 109.349 18.356 108.981 18.764C108.621 19.164 108.197 19.48 107.709 19.712C107.221 19.944 106.689 20.06 106.113 20.06ZM103.197 15.74C103.197 16.172 103.265 16.592 103.401 17C103.545 17.4 103.745 17.756 104.001 18.068C104.257 18.38 104.565 18.628 104.925 18.812C105.285 18.996 105.685 19.088 106.125 19.088C106.581 19.088 106.989 18.992 107.349 18.8C107.709 18.608 108.013 18.352 108.261 18.032C108.517 17.712 108.709 17.352 108.837 16.952C108.973 16.552 109.041 16.148 109.041 15.74C109.041 15.308 108.969 14.892 108.825 14.492C108.689 14.092 108.489 13.736 108.225 13.424C107.969 13.104 107.661 12.856 107.301 12.68C106.949 12.496 106.557 12.404 106.125 12.404C105.669 12.404 105.261 12.5 104.901 12.692C104.541 12.876 104.233 13.128 103.977 13.448C103.729 13.768 103.537 14.128 103.401 14.528C103.265 14.92 103.197 15.324 103.197 15.74ZM111.633 20V11.48H115.281C115.657 11.48 116.001 11.56 116.313 11.72C116.625 11.872 116.897 12.08 117.129 12.344C117.361 12.6 117.541 12.892 117.669 13.22C117.797 13.54 117.861 13.868 117.861 14.204C117.861 14.596 117.785 14.968 117.633 15.32C117.489 15.672 117.281 15.972 117.009 16.22C116.745 16.468 116.433 16.64 116.073 16.736L118.137 20H116.913L114.969 16.94H112.713V20H111.633ZM112.713 15.98H115.293C115.589 15.98 115.845 15.9 116.061 15.74C116.285 15.572 116.457 15.352 116.577 15.08C116.705 14.808 116.769 14.516 116.769 14.204C116.769 13.884 116.697 13.592 116.553 13.328C116.409 13.056 116.221 12.84 115.989 12.68C115.757 12.52 115.501 12.44 115.221 12.44H112.713V15.98Z" fill="white"/>
<g clip-path="url(#clip0_106_145)">
<path d="M154.735 22.7734C154.354 22.5523 153.908 22.4725 153.475 22.5476C153.042 22.6227 152.648 22.8481 152.362 23.1849C152.168 23.4153 151.962 23.6397 151.744 23.8581C146.277 29.3657 136.769 28.285 132.892 20.6219C132.092 19.0353 131.675 17.2802 131.675 15.4998C131.675 13.7195 132.092 11.9644 132.892 10.3778C136.769 2.71468 146.277 1.63793 151.736 7.14953C151.95 7.36528 152.153 7.58635 152.346 7.81276C152.635 8.15457 153.034 8.38326 153.473 8.45916C153.912 8.53505 154.363 8.45337 154.749 8.22827C154.972 8.09892 155.164 7.92205 155.312 7.70998C155.461 7.49791 155.561 7.25575 155.608 7.00036C155.654 6.74497 155.644 6.48249 155.58 6.23121C155.515 5.97993 155.397 5.74589 155.234 5.54539C154.947 5.19979 154.64 4.86418 154.322 4.54655C147.201 -2.6451 134.848 -1.29666 129.695 8.57387C128.583 10.712 128.002 13.0908 128.002 15.5058C128.002 17.9208 128.583 20.2997 129.695 22.4378C134.848 32.3063 147.209 33.6488 154.322 26.4651C154.64 26.1441 154.941 25.8112 155.226 25.4663C155.389 25.2644 155.508 25.0291 155.572 24.7765C155.637 24.5239 155.646 24.2602 155.6 24.0036C155.553 23.747 155.452 23.5037 155.303 23.2906C155.154 23.0775 154.961 22.8996 154.737 22.7694L154.735 22.7734Z" fill="white"/>
<path d="M149.143 9.76866C148.021 8.63537 146.591 7.86363 145.034 7.55104C143.478 7.23844 141.864 7.39903 140.398 8.01249C138.932 8.62595 137.679 9.66474 136.797 10.9975C135.915 12.3303 135.444 13.8971 135.444 15.5C135.444 17.1029 135.915 18.6698 136.797 20.0025C137.679 21.3353 138.932 22.3741 140.398 22.9875C141.864 23.601 143.478 23.7616 145.034 23.449C146.591 23.1364 148.021 22.3646 149.143 21.2314C150.648 19.7111 151.494 17.6496 151.494 15.5C151.494 13.3504 150.648 11.2889 149.143 9.76866ZM146.497 18.5585C145.898 19.1636 145.134 19.5758 144.303 19.7428C143.472 19.9098 142.61 19.8241 141.828 19.4967C141.045 19.1692 140.375 18.6146 139.905 17.903C139.434 17.1914 139.183 16.3548 139.183 15.499C139.183 14.6432 139.434 13.8066 139.905 13.095C140.375 12.3834 141.045 11.8288 141.828 11.5014C142.61 11.1739 143.472 11.0882 144.303 11.2552C145.134 11.4222 145.898 11.8344 146.497 12.4396C147.3 13.251 147.751 14.3515 147.751 15.499C147.751 16.6465 147.3 17.747 146.497 18.5585Z" fill="white"/>
</g>
<defs>
<clipPath id="clip0_106_145">
<rect width="31" height="31" fill="white" transform="translate(128)"/>
</clipPath>
</defs>
</svg>
